<svg xmlns="http://www.w3.org/2000/svg" xmlns:xlink="http://www.w3.org/1999/xlink" width="500" zoomAndPan="magnify" viewBox="0 0 375 374.999991" height="500" preserveAspectRatio="xMidYMid meet" version="1.0"><defs><g/><clipPath id="30f69d542b"><path d="M 52 69 L 321 69 L 321 334 L 52 334 Z M 52 69 " clip-rule="nonzero"/></clipPath><clipPath id="be86b98a04"><path d="M 0 133.832031 L 171.296875 -37.464844 L 374.945312 166.179688 L 203.648438 337.476562 Z M 0 133.832031 " clip-rule="nonzero"/></clipPath><clipPath id="4d1aad408e"><path d="M 0 133.832031 L 171.296875 -37.464844 L 374.945312 166.179688 L 203.648438 337.476562 Z M 0 133.832031 " clip-rule="nonzero"/></clipPath><clipPath id="71a99595d0"><path d="M 57 73 L 315 73 L 315 321 L 57 321 Z M 57 73 " clip-rule="nonzero"/></clipPath><clipPath id="540655da22"><path d="M 0 133.832031 L 171.296875 -37.464844 L 374.945312 166.179688 L 203.648438 337.476562 Z M 0 133.832031 " clip-rule="nonzero"/></clipPath><clipPath id="8bad366071"><path d="M 0 133.832031 L 171.296875 -37.464844 L 374.945312 166.179688 L 203.648438 337.476562 Z M 0 133.832031 " clip-rule="nonzero"/></clipPath><clipPath id="9764f8c7b5"><path d="M 151 166 L 235 166 L 235 250 L 151 250 Z M 151 166 " clip-rule="nonzero"/></clipPath><clipPath id="247c9529ed"><path d="M 151.675781 167.273438 L 233.421875 166.582031 L 234.113281 248.328125 L 152.367188 249.019531 Z M 151.675781 167.273438 " clip-rule="nonzero"/></clipPath><clipPath id="ea12328d47"><path d="M 151.675781 167.273438 L 233.421875 166.582031 L 234.113281 248.328125 L 152.367188 249.019531 Z M 151.675781 167.273438 " clip-rule="nonzero"/></clipPath><clipPath id="b6421e3082"><path d="M 195 166 L 278 166 L 278 250 L 195 250 Z M 195 166 " clip-rule="nonzero"/></clipPath><clipPath id="db1271748b"><path d="M 195.132812 167.273438 L 276.878906 166.582031 L 277.570312 248.328125 L 195.824219 249.019531 Z M 195.132812 167.273438 " clip-rule="nonzero"/></clipPath><clipPath id="fefc793d20"><path d="M 195.132812 167.273438 L 276.878906 166.582031 L 277.570312 248.328125 L 195.824219 249.019531 Z M 195.132812 167.273438 " clip-rule="nonzero"/></clipPath><clipPath id="80dabcae5b"><path d="M 25 41 L 97 41 L 97 62.761719 L 25 62.761719 Z M 25 41 " clip-rule="nonzero"/></clipPath><clipPath id="06f0abe89d"><path d="M 71 15 L 71.558594 15 L 71.558594 16 L 71 16 Z M 71 15 " clip-rule="nonzero"/></clipPath><clipPath id="c8a777ddd2"><rect x="0" width="72" y="0" height="22"/></clipPath><clipPath id="1e73cfa050"><path d="M 0.320312 0.839844 L 120.320312 0.839844 L 120.320312 40 L 0.320312 40 Z M 0.320312 0.839844 " clip-rule="nonzero"/></clipPath><clipPath id="7145dff198"><rect x="0" width="121" y="0" height="40"/></clipPath><clipPath id="323edd3149"><rect x="0" width="121" y="0" height="63"/></clipPath></defs><g clip-path="url(#30f69d542b)"><g clip-path="url(#be86b98a04)"><g clip-path="url(#4d1aad408e)"><path fill="#ff8243" d="M 196.683594 95.457031 L 235.695312 134.464844 C 238.851562 137.625 244.152344 134.515625 242.957031 130.21875 L 239.191406 116.664062 C 230.046875 83.753906 279.710938 70.925781 288.859375 103.855469 L 319.730469 214.96875 C 320.585938 218.074219 319.78125 221.160156 317.496094 223.449219 L 209.707031 331.234375 C 206.316406 334.625 200.792969 334.625 197.410156 331.242188 L 79.152344 212.984375 C 0.03125 133.859375 117.558594 16.332031 196.683594 95.457031 Z M 196.683594 95.457031 " fill-opacity="1" fill-rule="evenodd"/></g></g></g><g clip-path="url(#71a99595d0)"><g clip-path="url(#540655da22)"><g clip-path="url(#8bad366071)"><path fill="#fce883" d="M 281.511719 254.527344 C 281.042969 254.996094 280.386719 255.289062 279.667969 255.289062 C 278.730469 255.289062 277.890625 254.785156 277.4375 254.042969 L 238.800781 254.042969 L 238.800781 292.695312 C 239.550781 293.15625 240.058594 293.976562 240.050781 294.921875 C 240.050781 295.960938 239.445312 296.867188 238.558594 297.28125 C 238.144531 298.167969 237.246094 298.78125 236.199219 298.773438 C 235.261719 298.773438 234.433594 298.273438 233.972656 297.523438 L 195.320312 297.523438 L 195.320312 317.960938 C 195.320312 319.402344 194.160156 320.5625 192.71875 320.5625 C 191.277344 320.5625 190.113281 319.402344 190.113281 317.960938 L 190.113281 297.523438 L 169.679688 297.523438 C 168.238281 297.523438 167.074219 296.363281 167.074219 294.921875 C 167.074219 293.480469 168.238281 292.320312 169.679688 292.320312 L 190.113281 292.320312 L 190.113281 254.058594 L 151.855469 254.058594 L 151.855469 274.492188 C 151.855469 275.9375 150.691406 277.097656 149.25 277.097656 C 147.808594 277.097656 146.648438 275.9375 146.648438 274.492188 L 146.648438 254.058594 L 126.210938 254.058594 C 124.769531 254.058594 123.609375 252.898438 123.609375 251.453125 C 123.609375 250.011719 124.769531 248.851562 126.210938 248.851562 L 146.648438 248.851562 L 146.648438 210.589844 L 108.386719 210.589844 L 108.386719 231.027344 C 108.386719 232.46875 107.226562 233.628906 105.785156 233.628906 C 104.339844 233.628906 103.179688 232.46875 103.179688 231.027344 L 103.179688 210.589844 L 82.789062 210.589844 C 81.347656 210.589844 80.183594 209.429688 80.183594 207.988281 C 80.183594 206.546875 81.347656 205.382812 82.789062 205.382812 L 103.179688 205.382812 L 103.179688 167.125 L 64.917969 167.125 L 64.917969 174.953125 C 64.917969 176.398438 63.757812 177.558594 62.316406 177.558594 C 60.875 177.558594 59.714844 176.398438 59.714844 174.953125 L 59.714844 167.109375 C 58.359375 167.023438 57.285156 165.890625 57.277344 164.511719 C 57.277344 163.128906 58.359375 162.003906 59.714844 161.917969 L 59.714844 132.886719 C 59.714844 131.445312 60.875 130.285156 62.316406 130.285156 C 63.757812 130.285156 64.917969 131.445312 64.917969 132.886719 L 64.917969 161.917969 L 103.179688 161.917969 L 103.179688 123.65625 L 67.070312 123.65625 C 65.625 123.65625 64.464844 122.496094 64.464844 121.054688 C 64.464844 119.613281 65.625 118.449219 67.070312 118.449219 L 103.179688 118.449219 L 103.179688 82.871094 C 103.179688 81.429688 104.339844 80.269531 105.785156 80.269531 C 107.226562 80.269531 108.386719 81.429688 108.386719 82.871094 L 108.386719 118.449219 L 146.648438 118.449219 L 146.648438 80.191406 L 120.398438 80.191406 C 118.957031 80.191406 117.796875 79.027344 117.796875 77.585938 C 117.796875 76.144531 118.957031 74.984375 120.398438 74.984375 L 147.050781 74.984375 C 147.519531 74.253906 148.328125 73.78125 149.242188 73.785156 C 150.167969 73.785156 150.972656 74.261719 151.4375 74.984375 L 154.867188 74.984375 C 156.308594 74.984375 157.472656 76.144531 157.472656 77.585938 C 157.472656 79.027344 156.308594 80.191406 154.867188 80.191406 L 151.839844 80.191406 L 151.839844 118.449219 L 190.101562 118.449219 L 190.101562 100.148438 C 190.101562 98.707031 191.261719 97.546875 192.703125 97.546875 C 194.144531 97.546875 195.304688 98.707031 195.304688 100.148438 L 195.304688 118.449219 L 213.609375 118.449219 C 215.050781 118.449219 216.210938 119.613281 216.210938 121.054688 C 216.210938 122.496094 215.050781 123.65625 213.609375 123.65625 L 195.304688 123.65625 L 195.304688 161.917969 L 233.566406 161.917969 L 233.566406 141.597656 C 233.566406 140.15625 234.726562 138.996094 236.171875 138.996094 C 237.613281 138.996094 238.773438 140.15625 238.773438 141.597656 L 238.773438 161.917969 L 277.035156 161.917969 L 277.035156 123.65625 L 246.675781 123.65625 C 245.234375 123.65625 244.074219 122.496094 244.074219 121.054688 C 244.074219 119.613281 245.234375 118.449219 246.675781 118.449219 L 277.035156 118.449219 L 277.035156 98.390625 C 277.035156 96.949219 278.195312 95.785156 279.636719 95.785156 C 281.078125 95.785156 282.242188 96.949219 282.242188 98.390625 L 282.242188 118.449219 L 287.273438 118.449219 C 288.714844 118.449219 289.875 119.613281 289.875 121.054688 C 289.875 122.496094 288.714844 123.65625 287.273438 123.65625 L 282.242188 123.65625 L 282.242188 161.917969 L 299.359375 161.917969 C 300.800781 161.917969 301.960938 163.078125 301.960938 164.519531 C 301.960938 165.964844 300.800781 167.125 299.359375 167.125 L 282.242188 167.125 L 282.242188 205.382812 L 311.429688 205.382812 C 312.871094 205.382812 314.03125 206.546875 314.03125 207.988281 C 314.03125 209.429688 312.871094 210.589844 311.429688 210.589844 L 282.242188 210.589844 L 282.242188 249.226562 C 282.992188 249.6875 283.496094 250.511719 283.488281 251.453125 C 283.488281 252.492188 282.882812 253.402344 281.988281 253.820312 C 281.859375 254.09375 281.683594 254.339844 281.46875 254.554688 Z M 195.320312 292.304688 L 233.582031 292.304688 L 233.582031 254.042969 L 195.320312 254.042969 Z M 238.796875 248.828125 L 277.054688 248.828125 L 277.054688 210.570312 L 238.796875 210.570312 Z M 195.328125 248.828125 L 233.589844 248.828125 L 233.589844 210.570312 L 195.328125 210.570312 Z M 238.800781 205.355469 L 277.0625 205.355469 L 277.0625 167.09375 L 238.800781 167.09375 Z M 195.320312 205.355469 L 233.582031 205.355469 L 233.582031 167.09375 L 195.320312 167.09375 Z M 151.847656 248.828125 L 190.105469 248.828125 L 190.105469 210.570312 L 151.847656 210.570312 Z M 151.855469 205.355469 L 190.113281 205.355469 L 190.113281 167.09375 L 151.855469 167.09375 Z M 108.371094 205.355469 L 146.632812 205.355469 L 146.632812 167.09375 L 108.371094 167.09375 Z M 151.847656 161.882812 L 190.105469 161.882812 L 190.105469 123.621094 L 151.847656 123.621094 Z M 108.378906 161.882812 L 146.640625 161.882812 L 146.640625 123.621094 L 108.378906 123.621094 Z M 108.378906 161.882812 " fill-opacity="1" fill-rule="nonzero"/></g></g></g><g clip-path="url(#9764f8c7b5)"><g clip-path="url(#247c9529ed)"><g clip-path="url(#ea12328d47)"><path fill="#069494" d="M 151.675781 167.273438 L 233.660156 166.578125 L 234.351562 248.558594 L 152.371094 249.253906 Z M 151.675781 167.273438 " fill-opacity="1" fill-rule="nonzero"/></g></g></g><g clip-path="url(#b6421e3082)"><g clip-path="url(#db1271748b)"><g clip-path="url(#fefc793d20)"><path fill="#069494" d="M 195.132812 167.273438 L 277.113281 166.578125 L 277.804688 248.558594 L 195.824219 249.253906 Z M 195.132812 167.273438 " fill-opacity="1" fill-rule="nonzero"/></g></g></g><g transform="matrix(1, 0, 0, 1, 154, 177)"><g clip-path="url(#323edd3149)"><g clip-path="url(#80dabcae5b)"><g transform="matrix(1, 0, 0, 1, 25, 41)"><g clip-path="url(#c8a777ddd2)"><g fill="#f8f9fa" fill-opacity="1"><g transform="translate(1.047758, 15.679721)"><g><path d="M 0.984375 -13.46875 L 5.796875 -13.46875 C 7.085938 -13.46875 8.140625 -13.117188 8.953125 -12.421875 C 9.773438 -11.734375 10.1875 -10.75 10.1875 -9.46875 C 10.1875 -8.476562 9.9375 -7.644531 9.4375 -6.96875 C 8.945312 -6.300781 8.273438 -5.832031 7.421875 -5.5625 L 12.0625 0 L 8.15625 0 L 4.046875 -5.328125 L 4.046875 0 L 0.984375 0 Z M 4.046875 -7.5 L 4.40625 -7.5 C 4.6875 -7.5 4.925781 -7.503906 5.125 -7.515625 C 5.320312 -7.523438 5.546875 -7.5625 5.796875 -7.625 C 6.046875 -7.6875 6.242188 -7.773438 6.390625 -7.890625 C 6.546875 -8.015625 6.675781 -8.191406 6.78125 -8.421875 C 6.894531 -8.648438 6.953125 -8.925781 6.953125 -9.25 C 6.953125 -9.582031 6.894531 -9.863281 6.78125 -10.09375 C 6.675781 -10.320312 6.546875 -10.492188 6.390625 -10.609375 C 6.242188 -10.734375 6.046875 -10.828125 5.796875 -10.890625 C 5.546875 -10.953125 5.320312 -10.988281 5.125 -11 C 4.925781 -11.007812 4.6875 -11.015625 4.40625 -11.015625 L 4.046875 -11.015625 Z M 4.046875 -7.5 "/></g></g></g><g fill="#f8f9fa" fill-opacity="1"><g transform="translate(13.549765, 15.679721)"><g><path d="M 8.6875 -13.46875 L 8.6875 -10.78125 L 4.046875 -10.78125 L 4.046875 -8.09375 L 8.484375 -8.09375 L 8.484375 -5.40625 L 4.046875 -5.40625 L 4.046875 -2.6875 L 8.6875 -2.6875 L 8.6875 0 L 0.984375 0 L 0.984375 -13.46875 Z M 8.6875 -13.46875 "/></g></g></g><g fill="#f8f9fa" fill-opacity="1"><g transform="translate(23.832096, 15.679721)"><g><path d="M 8.140625 -2.78125 C 8.609375 -2.78125 9.0625 -2.847656 9.5 -2.984375 C 9.945312 -3.128906 10.273438 -3.265625 10.484375 -3.390625 L 10.796875 -3.609375 L 12.09375 -1 C 12.050781 -0.96875 11.992188 -0.921875 11.921875 -0.859375 C 11.847656 -0.804688 11.671875 -0.707031 11.390625 -0.5625 C 11.109375 -0.414062 10.8125 -0.285156 10.5 -0.171875 C 10.1875 -0.0664062 9.769531 0.0234375 9.25 0.109375 C 8.738281 0.203125 8.210938 0.25 7.671875 0.25 C 6.421875 0.25 5.234375 -0.0546875 4.109375 -0.671875 C 2.992188 -1.285156 2.09375 -2.128906 1.40625 -3.203125 C 0.71875 -4.285156 0.375 -5.453125 0.375 -6.703125 C 0.375 -7.648438 0.570312 -8.5625 0.96875 -9.4375 C 1.375 -10.3125 1.910156 -11.054688 2.578125 -11.671875 C 3.253906 -12.296875 4.035156 -12.789062 4.921875 -13.15625 C 5.816406 -13.53125 6.734375 -13.71875 7.671875 -13.71875 C 8.546875 -13.71875 9.347656 -13.613281 10.078125 -13.40625 C 10.816406 -13.195312 11.335938 -12.988281 11.640625 -12.78125 L 12.09375 -12.46875 L 10.796875 -9.859375 C 10.710938 -9.921875 10.59375 -10 10.4375 -10.09375 C 10.289062 -10.1875 9.988281 -10.304688 9.53125 -10.453125 C 9.070312 -10.609375 8.609375 -10.6875 8.140625 -10.6875 C 7.398438 -10.6875 6.738281 -10.566406 6.15625 -10.328125 C 5.570312 -10.085938 5.109375 -9.769531 4.765625 -9.375 C 4.421875 -8.988281 4.15625 -8.570312 3.96875 -8.125 C 3.789062 -7.675781 3.703125 -7.21875 3.703125 -6.75 C 3.703125 -5.71875 4.085938 -4.796875 4.859375 -3.984375 C 5.628906 -3.179688 6.722656 -2.78125 8.140625 -2.78125 Z M 8.140625 -2.78125 "/></g></g></g><g fill="#f8f9fa" fill-opacity="1"><g transform="translate(36.937987, 15.679721)"><g><path d="M 4.046875 -13.46875 L 4.046875 0 L 0.984375 0 L 0.984375 -13.46875 Z M 4.046875 -13.46875 "/></g></g></g><g fill="#f8f9fa" fill-opacity="1"><g transform="translate(42.780963, 15.679721)"><g><path d="M 0.984375 -13.46875 L 5.890625 -13.46875 C 7.265625 -13.46875 8.375 -13.113281 9.21875 -12.40625 C 10.070312 -11.695312 10.5 -10.664062 10.5 -9.3125 C 10.5 -7.96875 10.066406 -6.910156 9.203125 -6.140625 C 8.347656 -5.378906 7.242188 -5 5.890625 -5 L 4.046875 -5 L 4.046875 0 L 0.984375 0 Z M 4.046875 -7.453125 L 4.921875 -7.453125 C 5.597656 -7.453125 6.15625 -7.585938 6.59375 -7.859375 C 7.039062 -8.140625 7.265625 -8.59375 7.265625 -9.21875 C 7.265625 -9.863281 7.039062 -10.320312 6.59375 -10.59375 C 6.15625 -10.875 5.597656 -11.015625 4.921875 -11.015625 L 4.046875 -11.015625 Z M 4.046875 -7.453125 "/></g></g></g><g fill="#f8f9fa" fill-opacity="1"><g transform="translate(54.466912, 15.679721)"><g><path d="M 8.6875 -13.46875 L 8.6875 -10.78125 L 4.046875 -10.78125 L 4.046875 -8.09375 L 8.484375 -8.09375 L 8.484375 -5.40625 L 4.046875 -5.40625 L 4.046875 -2.6875 L 8.6875 -2.6875 L 8.6875 0 L 0.984375 0 L 0.984375 -13.46875 Z M 8.6875 -13.46875 "/></g></g></g><g fill="#f8f9fa" fill-opacity="1"><g transform="translate(64.749239, 15.679721)"><g><path d="M 1.796875 -4.40625 L 1.40625 -14.046875 L 4.296875 -14.046875 L 3.90625 -4.40625 Z M 2.84375 -3.5 C 3.363281 -3.5 3.804688 -3.316406 4.171875 -2.953125 C 4.535156 -2.585938 4.71875 -2.140625 4.71875 -1.609375 C 4.71875 -1.097656 4.535156 -0.660156 4.171875 -0.296875 C 3.804688 0.0664062 3.363281 0.25 2.84375 0.25 C 2.332031 0.25 1.894531 0.0664062 1.53125 -0.296875 C 1.164062 -0.660156 0.984375 -1.097656 0.984375 -1.609375 C 0.984375 -2.140625 1.164062 -2.585938 1.53125 -2.953125 C 1.894531 -3.316406 2.332031 -3.5 2.84375 -3.5 Z M 2.84375 -3.5 "/></g></g></g><g clip-path="url(#06f0abe89d)"><g fill="#f8f9fa" fill-opacity="1"><g transform="translate(71.262704, 15.679721)"><g/></g></g></g></g></g></g><g clip-path="url(#1e73cfa050)"><g transform="matrix(1, 0, 0, 1, 0.000000000000028422, 0)"><g clip-path="url(#7145dff198)"><g fill="#f8f9fa" fill-opacity="1"><g transform="translate(1.591527, 31.082768)"><g><path d="M 14.4375 -7.1875 L 14.5 -11.859375 C 14.5 -12.171875 14.832031 -12.378906 15.5 -12.484375 C 16.164062 -12.585938 16.710938 -12.640625 17.140625 -12.640625 L 18.484375 -12.546875 C 19.359375 -12.398438 19.796875 -12.15625 19.796875 -11.8125 L 19.65625 -1.0625 C 19.195312 -0.738281 18.273438 -0.421875 16.890625 -0.109375 C 15.503906 0.191406 13.914062 0.34375 12.125 0.34375 C 8.800781 0.34375 6.117188 -0.726562 4.078125 -2.875 C 2.046875 -5.03125 1.03125 -8.195312 1.03125 -12.375 C 1.03125 -15.914062 2.023438 -18.796875 4.015625 -21.015625 C 6.015625 -23.242188 8.773438 -24.359375 12.296875 -24.359375 C 13.898438 -24.359375 15.347656 -24.203125 16.640625 -23.890625 C 17.941406 -23.585938 18.832031 -23.171875 19.3125 -22.640625 C 19.332031 -22.460938 19.34375 -22.117188 19.34375 -21.609375 C 19.34375 -21.109375 19.171875 -20.394531 18.828125 -19.46875 C 18.484375 -18.539062 18.09375 -17.847656 17.65625 -17.390625 C 17.226562 -16.929688 16.914062 -16.703125 16.71875 -16.703125 C 16.519531 -16.703125 16.3125 -16.785156 16.09375 -16.953125 C 15.875 -17.128906 15.441406 -17.3125 14.796875 -17.5 C 14.160156 -17.695312 13.546875 -17.796875 12.953125 -17.796875 C 11.535156 -17.796875 10.382812 -17.335938 9.5 -16.421875 C 8.613281 -15.503906 8.171875 -14.082031 8.171875 -12.15625 C 8.171875 -10.238281 8.625 -8.78125 9.53125 -7.78125 C 10.4375 -6.78125 11.476562 -6.28125 12.65625 -6.28125 C 13.84375 -6.28125 14.4375 -6.582031 14.4375 -7.1875 Z M 14.4375 -7.1875 "/></g></g></g><g fill="#f8f9fa" fill-opacity="1"><g transform="translate(22.929454, 31.082768)"><g><path d="M 12.890625 -14.5 C 13.316406 -14.5 13.53125 -13.695312 13.53125 -12.09375 C 13.53125 -11.613281 13.476562 -11.046875 13.375 -10.390625 C 13.28125 -9.742188 13.09375 -9.421875 12.8125 -9.421875 L 8.453125 -9.421875 L 8.453125 -5.984375 L 14.78125 -5.984375 C 15.164062 -5.984375 15.425781 -5.476562 15.5625 -4.46875 C 15.632812 -4.03125 15.671875 -3.566406 15.671875 -3.078125 C 15.671875 -2.585938 15.597656 -1.953125 15.453125 -1.171875 C 15.316406 -0.390625 15.09375 0 14.78125 0 L 3.03125 0 C 2.15625 0 1.71875 -0.351562 1.71875 -1.0625 L 1.71875 -23.15625 C 1.71875 -23.75 1.984375 -24.046875 2.515625 -24.046875 L 14.8125 -24.046875 C 15.289062 -24.046875 15.53125 -23.03125 15.53125 -21 C 15.53125 -18.976562 15.289062 -17.96875 14.8125 -17.96875 L 8.453125 -17.96875 L 8.453125 -14.5 Z M 12.890625 -14.5 "/></g></g></g><g fill="#f8f9fa" fill-opacity="1"><g transform="translate(39.869226, 31.082768)"><g><path d="M 12.0625 -0.546875 C 12.0625 -0.0859375 10.925781 0.140625 8.65625 0.140625 C 6.382812 0.140625 5.25 -0.0859375 5.25 -0.546875 L 5.25 -17.796875 L 1.140625 -17.796875 C 0.742188 -17.796875 0.46875 -18.320312 0.3125 -19.375 C 0.238281 -19.882812 0.203125 -20.398438 0.203125 -20.921875 C 0.203125 -21.453125 0.238281 -21.96875 0.3125 -22.46875 C 0.46875 -23.519531 0.742188 -24.046875 1.140625 -24.046875 L 16.078125 -24.046875 C 16.472656 -24.046875 16.75 -23.519531 16.90625 -22.46875 C 16.976562 -21.96875 17.015625 -21.453125 17.015625 -20.921875 C 17.015625 -20.398438 16.976562 -19.882812 16.90625 -19.375 C 16.75 -18.320312 16.472656 -17.796875 16.078125 -17.796875 L 12.0625 -17.796875 Z M 12.0625 -0.546875 "/></g></g></g><g fill="#f8f9fa" fill-opacity="1"><g transform="translate(57.118248, 31.082768)"><g/></g></g><g fill="#f8f9fa" fill-opacity="1"><g transform="translate(63.578028, 31.082768)"><g><path d="M 12.0625 -0.546875 C 12.0625 -0.0859375 10.925781 0.140625 8.65625 0.140625 C 6.382812 0.140625 5.25 -0.0859375 5.25 -0.546875 L 5.25 -17.796875 L 1.140625 -17.796875 C 0.742188 -17.796875 0.46875 -18.320312 0.3125 -19.375 C 0.238281 -19.882812 0.203125 -20.398438 0.203125 -20.921875 C 0.203125 -21.453125 0.238281 -21.96875 0.3125 -22.46875 C 0.46875 -23.519531 0.742188 -24.046875 1.140625 -24.046875 L 16.078125 -24.046875 C 16.472656 -24.046875 16.75 -23.519531 16.90625 -22.46875 C 16.976562 -21.96875 17.015625 -21.453125 17.015625 -20.921875 C 17.015625 -20.398438 16.976562 -19.882812 16.90625 -19.375 C 16.75 -18.320312 16.472656 -17.796875 16.078125 -17.796875 L 12.0625 -17.796875 Z M 12.0625 -0.546875 "/></g></g></g><g fill="#f8f9fa" fill-opacity="1"><g transform="translate(80.827051, 31.082768)"><g><path d="M 20.40625 -0.578125 C 20.40625 -0.191406 19.25 0 16.9375 0 C 14.625 0 13.46875 -0.191406 13.46875 -0.578125 L 13.46875 -8.484375 L 8.65625 -8.484375 L 8.65625 -0.578125 C 8.65625 -0.191406 7.5 0 5.1875 0 C 2.875 0 1.71875 -0.191406 1.71875 -0.578125 L 1.71875 -23.359375 C 1.71875 -23.847656 2.875 -24.09375 5.1875 -24.09375 C 7.5 -24.09375 8.65625 -23.847656 8.65625 -23.359375 L 8.65625 -15.296875 L 13.46875 -15.296875 L 13.46875 -23.296875 C 13.46875 -23.617188 14.039062 -23.847656 15.1875 -23.984375 C 15.78125 -24.023438 16.363281 -24.046875 16.9375 -24.046875 L 18.6875 -23.984375 C 19.832031 -23.847656 20.40625 -23.617188 20.40625 -23.296875 Z M 20.40625 -0.578125 "/></g></g></g><g fill="#f8f9fa" fill-opacity="1"><g transform="translate(102.955277, 31.082768)"><g><path d="M 12.890625 -14.5 C 13.316406 -14.5 13.53125 -13.695312 13.53125 -12.09375 C 13.53125 -11.613281 13.476562 -11.046875 13.375 -10.390625 C 13.28125 -9.742188 13.09375 -9.421875 12.8125 -9.421875 L 8.453125 -9.421875 L 8.453125 -5.984375 L 14.78125 -5.984375 C 15.164062 -5.984375 15.425781 -5.476562 15.5625 -4.46875 C 15.632812 -4.03125 15.671875 -3.566406 15.671875 -3.078125 C 15.671875 -2.585938 15.597656 -1.953125 15.453125 -1.171875 C 15.316406 -0.390625 15.09375 0 14.78125 0 L 3.03125 0 C 2.15625 0 1.71875 -0.351562 1.71875 -1.0625 L 1.71875 -23.15625 C 1.71875 -23.75 1.984375 -24.046875 2.515625 -24.046875 L 14.8125 -24.046875 C 15.289062 -24.046875 15.53125 -23.03125 15.53125 -21 C 15.53125 -18.976562 15.289062 -17.96875 14.8125 -17.96875 L 8.453125 -17.96875 L 8.453125 -14.5 Z M 12.890625 -14.5 "/></g></g></g><g fill="#f8f9fa" fill-opacity="1"><g transform="translate(119.907707, 31.082768)"><g/></g></g></g></g></g></g></g></svg>